<svg width="366" height="261" viewBox="0 0 366 261" fill="none" xmlns="http://www.w3.org/2000/svg">
<path d="M310.018 66.0542C295.665 28.3554 263.295 10.9623 224.734 20.7237C193.19 28.7103 178.195 55.3323 161.437 64.8901C137.13 78.791 100.545 73.4875 68.8185 101.66C48.6989 119.523 51.0413 160.468 69.9635 189.878C84.9172 213.091 123.002 236.028 157.804 214.772C205.227 185.78 188.182 143.728 209.504 129.289C233.032 113.353 259.98 133.82 295.111 116.526C309.077 109.62 318.101 87.2839 310.018 66.0542Z" fill="white"/>
<path opacity="0.7" d="M310.018 66.0542C295.665 28.3554 263.295 10.9623 224.734 20.7237C193.19 28.7103 178.195 55.3323 161.437 64.8901C137.13 78.791 100.545 73.4875 68.8185 101.66C48.6989 119.523 51.0413 160.468 69.9635 189.878C84.9172 213.091 123.002 236.028 157.804 214.772C205.227 185.78 188.182 143.728 209.504 129.289C233.032 113.353 259.98 133.82 295.111 116.526C309.077 109.62 318.101 87.2839 310.018 66.0542Z" fill="white"/>
<path d="M119.572 245.997C146.081 245.997 167.571 244.429 167.571 242.495C167.571 240.56 146.081 238.992 119.572 238.992C93.0635 238.992 71.574 240.56 71.574 242.495C71.574 244.429 93.0635 245.997 119.572 245.997Z" fill="white"/>
<path d="M45.5566 235.475H317.798" stroke="#263238" stroke-width="1.25903" stroke-linecap="round" stroke-linejoin="round"/>
<path d="M293.579 173.184H284.623V172.391C284.622 172.021 284.697 171.655 284.843 171.315C284.989 170.975 285.203 170.668 285.471 170.414C285.74 170.159 286.058 169.962 286.406 169.834C286.753 169.707 287.123 169.651 287.493 169.671L291.001 169.864C291.697 169.901 292.352 170.204 292.832 170.709C293.311 171.214 293.579 171.883 293.579 172.578V173.184Z" fill="white"/>
<mask id="mask0_2078_17310" style="mask-type:luminance" maskUnits="userSpaceOnUse" x="284" y="169" width="10" height="5">
<path d="M293.579 173.184H284.623V172.391C284.622 172.021 284.697 171.655 284.843 171.315C284.989 170.975 285.203 170.668 285.471 170.414C285.74 170.159 286.058 169.962 286.406 169.834C286.753 169.707 287.123 169.651 287.493 169.671L291.001 169.864C291.697 169.901 292.352 170.204 292.832 170.709C293.311 171.214 293.579 171.883 293.579 172.578V173.184Z" fill="white"/>
</mask>
<g mask="url(#mask0_2078_17310)">
<path opacity="0.8" d="M293.579 173.184H284.623V172.391C284.622 172.021 284.697 171.655 284.843 171.315C284.989 170.975 285.203 170.668 285.471 170.414C285.74 170.159 286.058 169.962 286.406 169.834C286.753 169.707 287.123 169.651 287.493 169.671L291.001 169.864C291.697 169.901 292.352 170.204 292.832 170.709C293.311 171.214 293.579 171.883 293.579 172.578V173.184Z" fill="white"/>
</g>
<path d="M293.579 173.184H284.623V172.391C284.622 172.021 284.697 171.655 284.843 171.315C284.989 170.975 285.203 170.668 285.471 170.414C285.74 170.159 286.058 169.962 286.406 169.834C286.753 169.707 287.123 169.651 287.493 169.671L291.001 169.864C291.697 169.901 292.352 170.204 292.832 170.709C293.311 171.214 293.579 171.883 293.579 172.578V173.184Z" stroke="#263238" stroke-width="1.25903" stroke-linecap="round" stroke-linejoin="round"/>
<path d="M269.397 154.699C269.381 154.36 269.234 154.04 268.988 153.806C268.742 153.572 268.414 153.441 268.074 153.441H259.024C258.684 153.442 258.357 153.573 258.111 153.807C257.865 154.041 257.718 154.361 257.701 154.699L259.86 173.533H273.371L269.397 154.699Z" fill="white" stroke="#263238" stroke-width="1.25903" stroke-linecap="round" stroke-linejoin="round"/>
<path d="M293.976 125.75H290.604L286.818 161.298H290.186C290.463 161.291 290.73 161.186 290.936 161C291.142 160.814 291.275 160.56 291.31 160.285L294.891 126.757C294.909 126.629 294.898 126.498 294.86 126.374C294.821 126.25 294.756 126.136 294.669 126.04C294.582 125.944 294.475 125.869 294.355 125.818C294.235 125.768 294.106 125.745 293.976 125.75Z" fill="white" stroke="#263238" stroke-width="1.25903" stroke-linecap="round" stroke-linejoin="round"/>
<path d="M288.763 161.298H238.219C238.09 161.3 237.962 161.275 237.843 161.223C237.725 161.172 237.619 161.095 237.533 160.999C237.447 160.903 237.383 160.789 237.345 160.666C237.307 160.543 237.297 160.413 237.314 160.285L240.891 126.741C240.925 126.467 241.056 126.214 241.262 126.029C241.467 125.844 241.733 125.739 242.01 125.734H292.554C292.683 125.73 292.811 125.755 292.93 125.806C293.048 125.857 293.154 125.933 293.24 126.028C293.326 126.124 293.39 126.238 293.428 126.361C293.466 126.484 293.476 126.614 293.459 126.741L289.882 160.285C289.849 160.56 289.717 160.813 289.512 160.999C289.306 161.185 289.041 161.291 288.763 161.298Z" fill="white"/>
<mask id="mask1_2078_17310" style="mask-type:luminance" maskUnits="userSpaceOnUse" x="237" y="125" width="57" height="37">
<path d="M288.763 161.298H238.219C238.09 161.3 237.962 161.275 237.843 161.223C237.725 161.172 237.619 161.095 237.533 160.999C237.447 160.903 237.383 160.789 237.345 160.666C237.307 160.543 237.297 160.413 237.314 160.285L240.891 126.741C240.925 126.467 241.056 126.214 241.262 126.029C241.467 125.844 241.733 125.739 242.01 125.734H292.554C292.683 125.73 292.811 125.755 292.93 125.806C293.048 125.857 293.154 125.933 293.24 126.028C293.326 126.124 293.39 126.238 293.428 126.361C293.466 126.484 293.476 126.614 293.459 126.741L289.882 160.285C289.849 160.56 289.717 160.813 289.512 160.999C289.306 161.185 289.041 161.291 288.763 161.298Z" fill="white"/>
</mask>
<g mask="url(#mask1_2078_17310)">
<path opacity="0.4" d="M288.763 161.298H238.219C238.09 161.3 237.962 161.275 237.843 161.223C237.725 161.172 237.619 161.095 237.533 160.999C237.447 160.903 237.383 160.789 237.345 160.666C237.307 160.543 237.297 160.413 237.314 160.285L240.891 126.741C240.925 126.467 241.056 126.214 241.262 126.029C241.467 125.844 241.733 125.739 242.01 125.734H292.554C292.683 125.73 292.811 125.755 292.93 125.806C293.048 125.857 293.154 125.933 293.24 126.028C293.326 126.124 293.39 126.238 293.428 126.361C293.466 126.484 293.476 126.614 293.459 126.741L289.882 160.285C289.849 160.56 289.717 160.813 289.512 160.999C289.306 161.185 289.041 161.291 288.763 161.298Z" fill="white"/>
</g>
<path d="M288.763 161.298H238.219C238.09 161.3 237.962 161.275 237.843 161.223C237.725 161.172 237.619 161.095 237.533 160.999C237.447 160.903 237.383 160.789 237.345 160.666C237.307 160.543 237.297 160.413 237.314 160.285L240.891 126.741C240.925 126.467 241.056 126.214 241.262 126.029C241.467 125.844 241.733 125.739 242.01 125.734H292.554C292.683 125.73 292.811 125.755 292.93 125.806C293.048 125.857 293.154 125.933 293.24 126.028C293.326 126.124 293.39 126.238 293.428 126.361C293.466 126.484 293.476 126.614 293.459 126.741L289.882 160.285C289.849 160.56 289.717 160.813 289.512 160.999C289.306 161.185 289.041 161.291 288.763 161.298Z" stroke="#263238" stroke-width="1.25903" stroke-linecap="round" stroke-linejoin="round"/>
<path d="M273.867 172.066H257.246C257.052 172.066 256.865 172.143 256.728 172.28C256.591 172.417 256.514 172.603 256.514 172.797C256.514 172.992 256.591 173.178 256.728 173.316C256.865 173.454 257.051 173.532 257.246 173.533H273.862C274.057 173.532 274.243 173.454 274.38 173.316C274.517 173.178 274.594 172.992 274.594 172.797C274.594 172.604 274.518 172.419 274.382 172.282C274.245 172.145 274.061 172.068 273.867 172.066Z" fill="white" stroke="#263238" stroke-width="1.25903" stroke-linecap="round" stroke-linejoin="round"/>
<path d="M287.817 158.03H240.154C240.041 158.033 239.929 158.011 239.826 157.966C239.722 157.921 239.63 157.855 239.555 157.771C239.48 157.687 239.424 157.588 239.391 157.48C239.358 157.373 239.349 157.259 239.364 157.148L242.501 127.879C242.53 127.639 242.645 127.418 242.825 127.256C243.004 127.094 243.237 127.002 243.479 126.997H291.127C291.239 126.996 291.351 127.018 291.454 127.063C291.556 127.108 291.648 127.175 291.723 127.258C291.798 127.342 291.854 127.441 291.887 127.548C291.921 127.655 291.931 127.768 291.916 127.879L288.779 157.148C288.75 157.385 288.637 157.604 288.46 157.765C288.284 157.927 288.056 158.021 287.817 158.03Z" fill="white"/>
<mask id="mask2_2078_17310" style="mask-type:luminance" maskUnits="userSpaceOnUse" x="239" y="126" width="53" height="33">
<path d="M287.817 158.03H240.154C240.041 158.033 239.929 158.011 239.826 157.966C239.722 157.921 239.63 157.855 239.555 157.771C239.48 157.687 239.424 157.588 239.391 157.48C239.358 157.373 239.349 157.259 239.364 157.148L242.501 127.879C242.53 127.639 242.645 127.418 242.825 127.256C243.004 127.094 243.237 127.002 243.479 126.997H291.127C291.239 126.996 291.351 127.018 291.454 127.063C291.556 127.108 291.648 127.175 291.723 127.258C291.798 127.342 291.854 127.441 291.887 127.548C291.921 127.655 291.931 127.768 291.916 127.879L288.779 157.148C288.75 157.385 288.637 157.604 288.46 157.765C288.284 157.927 288.056 158.021 287.817 158.03Z" fill="white"/>
</mask>
<g mask="url(#mask2_2078_17310)">
<path opacity="0.8" d="M287.817 158.03H240.154C240.041 158.033 239.929 158.011 239.826 157.966C239.722 157.921 239.63 157.855 239.555 157.771C239.48 157.687 239.424 157.588 239.391 157.48C239.358 157.373 239.349 157.259 239.364 157.148L242.501 127.879C242.53 127.639 242.645 127.418 242.825 127.256C243.004 127.094 243.237 127.002 243.479 126.997H291.127C291.239 126.996 291.351 127.018 291.454 127.063C291.556 127.108 291.648 127.175 291.723 127.258C291.798 127.342 291.854 127.441 291.887 127.548C291.921 127.655 291.931 127.768 291.916 127.879L288.779 157.148C288.75 157.385 288.637 157.604 288.46 157.765C288.284 157.927 288.056 158.021 287.817 158.03Z" fill="white"/>
</g>
<path d="M287.817 158.03H240.154C240.041 158.033 239.929 158.011 239.826 157.966C239.722 157.921 239.63 157.855 239.555 157.771C239.48 157.687 239.424 157.588 239.391 157.48C239.358 157.373 239.349 157.259 239.364 157.148L242.501 127.879C242.53 127.639 242.645 127.418 242.825 127.256C243.004 127.094 243.237 127.002 243.479 126.997H291.127C291.239 126.996 291.351 127.018 291.454 127.063C291.556 127.108 291.648 127.175 291.723 127.258C291.798 127.342 291.854 127.441 291.887 127.548C291.921 127.655 291.931 127.768 291.916 127.879L288.779 157.148C288.75 157.385 288.637 157.604 288.46 157.765C288.284 157.927 288.056 158.021 287.817 158.03Z" stroke="#263238" stroke-width="1.25903" stroke-linecap="round" stroke-linejoin="round"/>
<path d="M180.292 178.268H184.187V234.691C184.187 234.897 184.105 235.095 183.959 235.241C183.813 235.386 183.614 235.468 183.408 235.468H181.076C180.869 235.468 180.671 235.386 180.525 235.241C180.379 235.095 180.297 234.897 180.297 234.691V178.268H180.292Z" fill="white" stroke="#263238" stroke-width="1.25903" stroke-linecap="round" stroke-linejoin="round"/>
<path d="M300.889 173.184H267.123V178.268H300.889V173.184Z" fill="white"/>
<mask id="mask3_2078_17310" style="mask-type:luminance" maskUnits="userSpaceOnUse" x="267" y="173" width="34" height="6">
<path d="M300.889 173.184H267.123V178.268H300.889V173.184Z" fill="white"/>
</mask>
<g mask="url(#mask3_2078_17310)">
<path opacity="0.4" d="M300.889 173.184H267.123V178.268H300.889V173.184Z" fill="white"/>
</g>
<path d="M300.889 173.184H267.123V178.268H300.889V173.184Z" stroke="#263238" stroke-width="1.25903" stroke-linecap="round" stroke-linejoin="round"/>
<path d="M204.437 178.268H208.333V234.691C208.333 234.897 208.25 235.095 208.104 235.241C207.958 235.386 207.76 235.468 207.553 235.468H205.222C205.119 235.469 205.017 235.449 204.922 235.411C204.827 235.372 204.74 235.315 204.667 235.242C204.594 235.17 204.537 235.084 204.497 234.989C204.458 234.895 204.437 234.793 204.437 234.691V178.268Z" fill="white" stroke="#263238" stroke-width="1.25903" stroke-linecap="round" stroke-linejoin="round"/>
<path d="M294.745 178.268H298.64V234.691C298.64 234.897 298.558 235.095 298.412 235.241C298.266 235.386 298.068 235.468 297.861 235.468H295.529C295.323 235.468 295.125 235.386 294.979 235.241C294.832 235.095 294.75 234.897 294.75 234.691V178.268H294.745Z" fill="white" stroke="#263238" stroke-width="1.25903" stroke-linecap="round" stroke-linejoin="round"/>
<path d="M276.754 173.184H178.038V178.268H276.754V173.184Z" fill="white"/>
<mask id="mask4_2078_17310" style="mask-type:luminance" maskUnits="userSpaceOnUse" x="178" y="173" width="99" height="6">
<path d="M276.754 173.184H178.038V178.268H276.754V173.184Z" fill="white"/>
</mask>
<g mask="url(#mask4_2078_17310)">
<path opacity="0.7" d="M276.754 173.184H178.038V178.268H276.754V173.184Z" fill="white"/>
</g>
<path d="M276.754 173.184H178.038V178.268H276.754V173.184Z" stroke="#263238" stroke-width="1.25903" stroke-linecap="round" stroke-linejoin="round"/>
<path d="M270.61 178.268H274.5V234.691C274.5 234.897 274.418 235.095 274.272 235.241C274.126 235.386 273.928 235.468 273.721 235.468H271.363C271.156 235.468 270.958 235.386 270.812 235.241C270.666 235.095 270.584 234.897 270.584 234.691V178.268H270.61Z" fill="white" stroke="#263238" stroke-width="1.25903" stroke-linecap="round" stroke-linejoin="round"/>
<path d="M268.848 171.09H240.666V173.183H268.848V171.09Z" fill="white"/>
<mask id="mask5_2078_17310" style="mask-type:luminance" maskUnits="userSpaceOnUse" x="240" y="171" width="29" height="3">
<path d="M268.848 171.09H240.666V173.183H268.848V171.09Z" fill="white"/>
</mask>
<g mask="url(#mask5_2078_17310)">
<path opacity="0.4" d="M268.848 171.09H240.666V173.183H268.848V171.09Z" fill="white"/>
</g>
<path d="M268.848 171.09H240.666V173.183H268.848V171.09Z" stroke="#263238" stroke-width="1.25903" stroke-linecap="round" stroke-linejoin="round"/>
<path d="M59.1195 235.475H106.083L106.083 173.085H59.1195L59.1195 235.475Z" fill="white"/>
<mask id="mask6_2078_17310" style="mask-type:luminance" maskUnits="userSpaceOnUse" x="59" y="173" width="48" height="63">
<path d="M59.1195 235.475H106.083L106.083 173.085H59.1195L59.1195 235.475Z" fill="white"/>
</mask>
<g mask="url(#mask6_2078_17310)">
<path opacity="0.7" d="M59.1195 235.475H106.083L106.083 173.085H59.1195L59.1195 235.475Z" fill="white"/>
</g>
<path d="M59.1195 235.475H106.083L106.083 173.085H59.1195L59.1195 235.475Z" stroke="#263238" stroke-width="1.25903" stroke-linecap="round" stroke-linejoin="round"/>
<path d="M50.1576 235.475H59.1194L59.1194 173.085H50.1576L50.1576 235.475Z" fill="white"/>
<mask id="mask7_2078_17310" style="mask-type:luminance" maskUnits="userSpaceOnUse" x="50" y="173" width="10" height="63">
<path d="M50.1576 235.475H59.1194L59.1194 173.085H50.1576L50.1576 235.475Z" fill="white"/>
</mask>
<g mask="url(#mask7_2078_17310)">
<path opacity="0.3" d="M50.1576 235.475H59.1194L59.1194 173.085H50.1576L50.1576 235.475Z" fill="white"/>
</g>
<path d="M50.1576 235.475H59.1194L59.1194 173.085H50.1576L50.1576 235.475Z" stroke="#263238" stroke-width="1.25903" stroke-linecap="round" stroke-linejoin="round"/>
<path d="M62.1677 192.863H102.794V177.71H62.1677V192.863Z" fill="white" stroke="#263238" stroke-width="1.25903" stroke-linecap="round" stroke-linejoin="round"/>
<path d="M62.1677 209.667H102.794V194.513H62.1677V209.667Z" fill="white" stroke="#263238" stroke-width="1.25903" stroke-linecap="round" stroke-linejoin="round"/>
<path d="M62.1677 226.476H102.794V211.322H62.1677V226.476Z" fill="white" stroke="#263238" stroke-width="1.25903" stroke-linecap="round" stroke-linejoin="round"/>
<path d="M80.7866 185.31C80.7866 185.645 80.886 185.972 81.0721 186.25C81.2583 186.528 81.5228 186.745 81.8324 186.873C82.1419 187.001 82.4826 187.034 82.8112 186.969C83.1398 186.904 83.4416 186.743 83.6786 186.506C83.9155 186.27 84.0768 185.968 84.1422 185.64C84.2076 185.312 84.174 184.972 84.0458 184.663C83.9176 184.354 83.7004 184.09 83.4218 183.904C83.1433 183.718 82.8157 183.619 82.4807 183.619C82.2582 183.619 82.0379 183.663 81.8324 183.748C81.6269 183.833 81.4401 183.957 81.2828 184.115C81.1255 184.272 81.0007 184.458 80.9156 184.663C80.8304 184.868 80.7866 185.088 80.7866 185.31Z" fill="white" stroke="#263238" stroke-width="1.25903" stroke-linecap="round" stroke-linejoin="round"/>
<path d="M80.7866 202.092C80.7856 202.427 80.8841 202.755 81.0696 203.033C81.2551 203.312 81.5193 203.53 81.8288 203.659C82.1382 203.787 82.479 203.822 82.808 203.757C83.1369 203.692 83.4393 203.532 83.6767 203.295C83.9141 203.059 84.076 202.758 84.1418 202.429C84.2076 202.101 84.1743 201.761 84.0463 201.452C83.9182 201.142 83.7011 200.878 83.4224 200.692C83.1437 200.506 82.816 200.406 82.4807 200.406C82.0323 200.406 81.6022 200.584 81.2847 200.9C80.9671 201.216 80.788 201.645 80.7866 202.092Z" fill="white" stroke="#263238" stroke-width="1.25903" stroke-linecap="round" stroke-linejoin="round"/>
<path d="M80.7866 218.901C80.7866 219.236 80.886 219.563 81.0721 219.841C81.2583 220.119 81.5228 220.336 81.8324 220.464C82.1419 220.592 82.4826 220.625 82.8112 220.56C83.1398 220.495 83.4416 220.334 83.6786 220.097C83.9155 219.861 84.0768 219.559 84.1422 219.231C84.2076 218.903 84.174 218.563 84.0458 218.254C83.9176 217.945 83.7004 217.681 83.4218 217.495C83.1433 217.309 82.8157 217.21 82.4807 217.21C82.2582 217.21 82.0379 217.254 81.8324 217.339C81.6269 217.424 81.4401 217.548 81.2828 217.705C81.1255 217.862 81.0007 218.049 80.9156 218.254C80.8304 218.459 80.7866 218.679 80.7866 218.901Z" fill="white" stroke="#263238" stroke-width="1.25903" stroke-linecap="round" stroke-linejoin="round"/>
<path d="M262.568 56.7422H246.789V153.344H262.568C263.711 153.344 264.843 153.12 265.899 152.684C266.956 152.248 267.915 151.608 268.724 150.801C269.532 149.995 270.174 149.037 270.611 147.983C271.049 146.928 271.274 145.799 271.274 144.657V65.4283C271.274 64.2872 271.049 63.1572 270.611 62.103C270.174 61.0489 269.532 60.0911 268.724 59.2844C267.915 58.4778 266.956 57.8381 265.899 57.4019C264.843 56.9657 263.711 56.7415 262.568 56.7422Z" fill="#263238" stroke="#263238" stroke-width="1.25903" stroke-linecap="round" stroke-linejoin="round"/>
<path d="M259.28 56.7422H126.772C121.967 56.7422 118.072 60.6311 118.072 65.4283V144.663C118.072 149.46 121.967 153.349 126.772 153.349H259.28C264.085 153.349 267.98 149.46 267.98 144.663V65.4283C267.98 60.6311 264.085 56.7422 259.28 56.7422Z" fill="white" stroke="#263238" stroke-width="1.25903" stroke-linecap="round" stroke-linejoin="round"/>
<path d="M256.226 60.0146H254.883C253.612 60.0146 252.582 61.043 252.582 62.3114V63.653C252.582 64.9215 253.612 65.9498 254.883 65.9498H256.226C257.497 65.9498 258.527 64.9215 258.527 63.653V62.3114C258.527 61.043 257.497 60.0146 256.226 60.0146Z" fill="#999999" stroke="#263238" stroke-width="1.25903" stroke-linecap="round" stroke-linejoin="round"/>
<mask id="mask8_2078_17310" style="mask-type:luminance" maskUnits="userSpaceOnUse" x="125" y="60" width="7" height="6">
<path d="M131.917 62.9848C131.917 63.5725 131.742 64.147 131.415 64.6355C131.088 65.1241 130.623 65.5048 130.079 65.7294C129.535 65.9541 128.937 66.0126 128.36 65.8976C127.782 65.7825 127.252 65.4991 126.836 65.0832C126.42 64.6673 126.138 64.1376 126.023 63.5611C125.909 62.9846 125.969 62.3872 126.195 61.8446C126.421 61.3019 126.803 60.8384 127.293 60.5127C127.783 60.1869 128.358 60.0136 128.947 60.0147C129.338 60.0147 129.724 60.0915 130.085 60.2408C130.445 60.3902 130.773 60.609 131.049 60.8849C131.325 61.1608 131.543 61.4883 131.692 61.8486C131.841 62.2089 131.918 62.595 131.917 62.9848Z" fill="white"/>
</mask>
<g mask="url(#mask8_2078_17310)">
<path opacity="0.5" d="M131.917 62.9848C131.917 63.5725 131.742 64.147 131.415 64.6355C131.088 65.1241 130.623 65.5048 130.079 65.7294C129.535 65.9541 128.937 66.0126 128.36 65.8976C127.782 65.7825 127.252 65.4991 126.836 65.0832C126.42 64.6673 126.138 64.1376 126.023 63.5611C125.909 62.9846 125.969 62.3872 126.195 61.8446C126.421 61.3019 126.803 60.8384 127.293 60.5127C127.783 60.1869 128.358 60.0136 128.947 60.0147C129.338 60.0147 129.724 60.0915 130.085 60.2408C130.445 60.3902 130.773 60.609 131.049 60.8849C131.325 61.1608 131.543 61.4883 131.692 61.8486C131.841 62.2089 131.918 62.595 131.917 62.9848Z" fill="black"/>
</g>
<path d="M131.917 62.9848C131.917 63.5725 131.742 64.147 131.415 64.6355C131.088 65.1241 130.623 65.5048 130.079 65.7294C129.535 65.9541 128.937 66.0126 128.36 65.8976C127.782 65.7825 127.252 65.4991 126.836 65.0832C126.42 64.6673 126.138 64.1376 126.023 63.5611C125.909 62.9846 125.969 62.3872 126.195 61.8446C126.421 61.3019 126.803 60.8384 127.293 60.5127C127.783 60.1869 128.358 60.0136 128.947 60.0147C129.338 60.0147 129.724 60.0915 130.085 60.2408C130.445 60.3902 130.773 60.609 131.049 60.8849C131.325 61.1608 131.543 61.4883 131.692 61.8486C131.841 62.2089 131.918 62.595 131.917 62.9848Z" stroke="#263238" stroke-width="1.25903" stroke-linecap="round" stroke-linejoin="round"/>
<mask id="mask9_2078_17310" style="mask-type:luminance" maskUnits="userSpaceOnUse" x="144" y="60" width="7" height="6">
<path d="M147.42 65.955C149.063 65.955 150.395 64.6252 150.395 62.9848C150.395 61.3444 149.063 60.0146 147.42 60.0146C145.777 60.0146 144.445 61.3444 144.445 62.9848C144.445 64.6252 145.777 65.955 147.42 65.955Z" fill="white"/>
</mask>
<g mask="url(#mask9_2078_17310)">
<path opacity="0.5" d="M147.42 65.955C149.063 65.955 150.395 64.6252 150.395 62.9848C150.395 61.3444 149.063 60.0146 147.42 60.0146C145.777 60.0146 144.445 61.3444 144.445 62.9848C144.445 64.6252 145.777 65.955 147.42 65.955Z" fill="white" stroke="#263238" stroke-width="1.25903" stroke-linecap="round" stroke-linejoin="round"/>
</g>
<path d="M147.42 65.955C149.063 65.955 150.395 64.6252 150.395 62.9848C150.395 61.3444 149.063 60.0146 147.42 60.0146C145.777 60.0146 144.445 61.3444 144.445 62.9848C144.445 64.6252 145.777 65.955 147.42 65.955Z" stroke="#263238" stroke-width="1.25903" stroke-linecap="round" stroke-linejoin="round"/>
<path d="M138.181 65.955C139.824 65.955 141.156 64.6252 141.156 62.9848C141.156 61.3444 139.824 60.0146 138.181 60.0146C136.538 60.0146 135.206 61.3444 135.206 62.9848C135.206 64.6252 136.538 65.955 138.181 65.955Z" stroke="#263238" stroke-width="1.25903" stroke-linecap="round" stroke-linejoin="round"/>
<path d="M259.28 69.2275H126.777C124.152 69.2275 122.024 71.3519 122.024 73.9725V144.657C122.024 147.277 124.152 149.402 126.777 149.402H259.28C261.905 149.402 264.032 147.277 264.032 144.657V73.9725C264.032 71.3519 261.905 69.2275 259.28 69.2275Z" fill="white"/>
<mask id="mask10_2078_17310" style="mask-type:luminance" maskUnits="userSpaceOnUse" x="122" y="69" width="143" height="81">
<path d="M259.28 69.2275H126.777C124.152 69.2275 122.024 71.3519 122.024 73.9725V144.657C122.024 147.277 124.152 149.402 126.777 149.402H259.28C261.905 149.402 264.032 147.277 264.032 144.657V73.9725C264.032 71.3519 261.905 69.2275 259.28 69.2275Z" fill="white"/>
</mask>
<g mask="url(#mask10_2078_17310)">
<path opacity="0.3" d="M259.28 69.2275H126.777C124.152 69.2275 122.024 71.3519 122.024 73.9725V144.657C122.024 147.277 124.152 149.402 126.777 149.402H259.28C261.905 149.402 264.032 147.277 264.032 144.657V73.9725C264.032 71.3519 261.905 69.2275 259.28 69.2275Z" fill="black"/>
</g>
<path d="M259.28 69.2275H126.777C124.152 69.2275 122.024 71.3519 122.024 73.9725V144.657C122.024 147.277 124.152 149.402 126.777 149.402H259.28C261.905 149.402 264.032 147.277 264.032 144.657V73.9725C264.032 71.3519 261.905 69.2275 259.28 69.2275Z" stroke="#263238" stroke-width="1.25903" stroke-linecap="round" stroke-linejoin="round"/>
<path d="M162.713 72.5117H126.772C125.967 72.5117 125.313 73.1638 125.313 73.9681V144.657C125.313 145.462 125.967 146.114 126.772 146.114H162.713C163.519 146.114 164.172 145.462 164.172 144.657V73.9681C164.172 73.1638 163.519 72.5117 162.713 72.5117Z" fill="#999999" stroke="#263238" stroke-width="1.25903" stroke-linecap="round" stroke-linejoin="round"/>
<path d="M213.075 72.5117H172.522C171.717 72.5117 171.063 73.1638 171.063 73.9681V144.657C171.063 145.462 171.717 146.114 172.522 146.114H213.075C213.881 146.114 214.534 145.462 214.534 144.657V73.9681C214.534 73.1638 213.881 72.5117 213.075 72.5117Z" fill="white"/>
<mask id="mask11_2078_17310" style="mask-type:luminance" maskUnits="userSpaceOnUse" x="171" y="72" width="44" height="75">
<path d="M213.075 72.5117H172.522C171.717 72.5117 171.063 73.1638 171.063 73.9681V144.657C171.063 145.462 171.717 146.114 172.522 146.114H213.075C213.881 146.114 214.534 145.462 214.534 144.657V73.9681C214.534 73.1638 213.881 72.5117 213.075 72.5117Z" fill="white"/>
</mask>
<g mask="url(#mask11_2078_17310)">
<path opacity="0.8" d="M213.075 72.5117H172.522C171.717 72.5117 171.063 73.1638 171.063 73.9681V144.657C171.063 145.462 171.717 146.114 172.522 146.114H213.075C213.881 146.114 214.534 145.462 214.534 144.657V73.9681C214.534 73.1638 213.881 72.5117 213.075 72.5117Z" fill="white"/>
</g>
<path d="M213.075 72.5117H172.522C171.717 72.5117 171.063 73.1638 171.063 73.9681V144.657C171.063 145.462 171.717 146.114 172.522 146.114H213.075C213.881 146.114 214.534 145.462 214.534 144.657V73.9681C214.534 73.1638 213.881 72.5117 213.075 72.5117Z" stroke="#263238" stroke-width="1.25903" stroke-linecap="round" stroke-linejoin="round"/>
<path d="M257.199 72.5117H224.421C224.068 72.5131 223.73 72.6539 223.481 72.9034C223.233 73.1529 223.093 73.4907 223.093 73.8428V77.8518H258.527V73.8428C258.527 73.4907 258.387 73.1529 258.138 72.9034C257.889 72.6539 257.551 72.5131 257.199 72.5117Z" fill="white" stroke="#263238" stroke-width="1.25903" stroke-linecap="round" stroke-linejoin="round"/>
<path d="M254.057 74.124H257.215" stroke="#263238" stroke-width="1.25903" stroke-linecap="round" stroke-linejoin="round"/>
<path d="M254.056 75.1787H257.214" stroke="#263238" stroke-width="1.25903" stroke-linecap="round" stroke-linejoin="round"/>
<path d="M257.215 76.2275H254.057" stroke="#263238" stroke-width="1.25903" stroke-linecap="round" stroke-linejoin="round"/>
<path d="M240.812 77.8518L239.992 74.5266C239.849 73.9516 239.518 73.4407 239.051 73.0756C238.583 72.7104 238.007 72.5119 237.414 72.5117H224.421C224.068 72.5131 223.73 72.6539 223.481 72.9034C223.233 73.1529 223.093 73.4907 223.093 73.8428V93.872C223.093 94.2236 223.233 94.5608 223.482 94.8095C223.731 95.0581 224.069 95.1978 224.421 95.1978H257.199C257.551 95.1978 257.889 95.0581 258.138 94.8095C258.387 94.5608 258.527 94.2236 258.527 93.872V77.8518H240.812Z" fill="#999999" stroke="#263238" stroke-width="1.25903" stroke-linecap="round" stroke-linejoin="round"/>
<path d="M124.759 141.776H138.416C138.725 141.776 138.97 141.645 138.97 141.483V127.337C138.97 127.175 138.725 127.045 138.416 127.045H124.759C124.456 127.045 124.205 127.175 124.205 127.337V141.463C124.205 141.645 124.44 141.776 124.759 141.776Z" fill="white"/>
<mask id="mask12_2078_17310" style="mask-type:luminance" maskUnits="userSpaceOnUse" x="124" y="127" width="15" height="15">
<path d="M124.759 141.776H138.416C138.725 141.776 138.97 141.645 138.97 141.483V127.337C138.97 127.175 138.725 127.045 138.416 127.045H124.759C124.456 127.045 124.205 127.175 124.205 127.337V141.463C124.205 141.645 124.44 141.776 124.759 141.776Z" fill="white"/>
</mask>
<g mask="url(#mask12_2078_17310)">
<path opacity="0.3" d="M124.759 141.776H138.416C138.725 141.776 138.97 141.645 138.97 141.483V127.337C138.97 127.175 138.725 127.045 138.416 127.045H124.759C124.456 127.045 124.205 127.175 124.205 127.337V141.463C124.205 141.645 124.44 141.776 124.759 141.776Z" fill="black"/>
</g>
<path d="M124.759 141.776H138.416C138.725 141.776 138.97 141.645 138.97 141.483V127.337C138.97 127.175 138.725 127.045 138.416 127.045H124.759C124.456 127.045 124.205 127.175 124.205 127.337V141.463C124.205 141.645 124.44 141.776 124.759 141.776Z" stroke="#263238" stroke-width="1.25903" stroke-linecap="round" stroke-linejoin="round"/>
<path d="M141.856 141.776H155.513C155.817 141.776 156.068 141.645 156.068 141.483V127.337C156.068 127.175 155.817 127.045 155.513 127.045H141.856C141.548 127.045 141.302 127.175 141.302 127.337V141.463C141.302 141.645 141.548 141.776 141.856 141.776Z" fill="white" stroke="#263238" stroke-width="1.25903" stroke-linecap="round" stroke-linejoin="round"/>
<path d="M131.342 124.613H144.999C145.307 124.613 145.553 124.482 145.553 124.32V110.174C145.553 110.012 145.307 109.882 144.999 109.882H131.342C131.039 109.882 130.788 110.012 130.788 110.174V124.32C130.788 124.482 131.039 124.613 131.342 124.613Z" fill="white" stroke="#263238" stroke-width="1.25903" stroke-linecap="round" stroke-linejoin="round"/>
<path d="M148.439 124.613H162.086C162.389 124.613 162.64 124.482 162.64 124.32V110.174C162.64 110.012 162.389 109.882 162.086 109.882H148.439C148.131 109.882 147.885 110.012 147.885 110.174V124.32C147.885 124.482 148.131 124.613 148.439 124.613Z" fill="white" stroke="#263238" stroke-width="1.25903" stroke-linecap="round" stroke-linejoin="round"/>
<path d="M130.024 107.449H143.681C143.99 107.449 144.241 107.318 144.241 107.156V93.0101C144.241 92.8483 143.99 92.7178 143.681 92.7178H130.024C129.721 92.7178 129.47 92.8483 129.47 93.0101V107.156C129.47 107.318 129.721 107.449 130.024 107.449Z" fill="white"/>
<mask id="mask13_2078_17310" style="mask-type:luminance" maskUnits="userSpaceOnUse" x="129" y="92" width="16" height="16">
<path d="M130.024 107.449H143.681C143.99 107.449 144.241 107.318 144.241 107.156V93.0101C144.241 92.8483 143.99 92.7178 143.681 92.7178H130.024C129.721 92.7178 129.47 92.8483 129.47 93.0101V107.156C129.47 107.318 129.721 107.449 130.024 107.449Z" fill="white"/>
</mask>
<g mask="url(#mask13_2078_17310)">
<path opacity="0.5" d="M130.024 107.449H143.681C143.99 107.449 144.241 107.318 144.241 107.156V93.0101C144.241 92.8483 143.99 92.7178 143.681 92.7178H130.024C129.721 92.7178 129.47 92.8483 129.47 93.0101V107.156C129.47 107.318 129.721 107.449 130.024 107.449Z" fill="white"/>
</g>
<path d="M130.024 107.449H143.681C143.99 107.449 144.241 107.318 144.241 107.156V93.0101C144.241 92.8483 143.99 92.7178 143.681 92.7178H130.024C129.721 92.7178 129.47 92.8483 129.47 93.0101V107.156C129.47 107.318 129.721 107.449 130.024 107.449Z" stroke="#263238" stroke-width="1.25903" stroke-linecap="round" stroke-linejoin="round"/>
<path d="M147.122 107.449H160.779C161.087 107.449 161.333 107.318 161.333 107.156V93.0101C161.333 92.8483 161.087 92.7178 160.779 92.7178H147.122C146.813 92.7178 146.567 92.8483 146.567 93.0101V107.156C146.567 107.318 146.813 107.449 147.122 107.449Z" fill="white" stroke="#263238" stroke-width="1.25903" stroke-linecap="round" stroke-linejoin="round"/>
<path d="M130.024 90.3064H143.681C143.99 90.3064 144.241 90.1759 144.241 90.0141V75.847C144.241 75.6852 143.99 75.5547 143.681 75.5547H130.024C129.721 75.5547 129.47 75.6852 129.47 75.847V89.9932C129.47 90.155 129.721 90.3064 130.024 90.3064Z" fill="white" stroke="#263238" stroke-width="1.25903" stroke-linecap="round" stroke-linejoin="round"/>
<path d="M147.122 90.3064H160.779C161.087 90.3064 161.333 90.1759 161.333 90.0141V75.847C161.333 75.6852 161.087 75.5547 160.779 75.5547H147.122C146.813 75.5547 146.567 75.6852 146.567 75.847V89.9932C146.567 90.155 146.813 90.3064 147.122 90.3064Z" fill="white"/>
<mask id="mask14_2078_17310" style="mask-type:luminance" maskUnits="userSpaceOnUse" x="146" y="75" width="16" height="16">
<path d="M147.122 90.3064H160.779C161.087 90.3064 161.333 90.1759 161.333 90.0141V75.847C161.333 75.6852 161.087 75.5547 160.779 75.5547H147.122C146.813 75.5547 146.567 75.6852 146.567 75.847V89.9932C146.567 90.155 146.813 90.3064 147.122 90.3064Z" fill="white"/>
</mask>
<g mask="url(#mask14_2078_17310)">
<path opacity="0.7" d="M147.122 90.3064H160.779C161.087 90.3064 161.333 90.1759 161.333 90.0141V75.847C161.333 75.6852 161.087 75.5547 160.779 75.5547H147.122C146.813 75.5547 146.567 75.6852 146.567 75.847V89.9932C146.567 90.155 146.813 90.3064 147.122 90.3064Z" fill="white"/>
</g>
<path d="M147.122 90.3064H160.779C161.087 90.3064 161.333 90.1759 161.333 90.0141V75.847C161.333 75.6852 161.087 75.5547 160.779 75.5547H147.122C146.813 75.5547 146.567 75.6852 146.567 75.847V89.9932C146.567 90.155 146.813 90.3064 147.122 90.3064Z" stroke="#263238" stroke-width="1.25903" stroke-linecap="round" stroke-linejoin="round"/>
<path d="M254.302 128.935H221.53C221.177 128.937 220.839 129.078 220.59 129.327C220.34 129.576 220.199 129.913 220.196 130.266V150.337C220.196 150.511 220.231 150.684 220.298 150.846C220.365 151.007 220.463 151.154 220.587 151.278C220.711 151.401 220.858 151.499 221.019 151.566C221.181 151.633 221.354 151.668 221.53 151.668H254.302C254.655 151.666 254.994 151.526 255.244 151.276C255.493 151.027 255.634 150.689 255.636 150.337V130.281C255.637 130.105 255.603 129.931 255.537 129.768C255.471 129.605 255.373 129.457 255.249 129.332C255.125 129.206 254.978 129.107 254.815 129.039C254.653 128.971 254.478 128.935 254.302 128.935Z" fill="#263238" stroke="#263238" stroke-width="1.25903" stroke-linecap="round" stroke-linejoin="round"/>
<path d="M252.096 128.298H219.323C218.97 128.298 218.632 128.437 218.382 128.686C218.132 128.934 217.991 129.272 217.99 129.624V133.633H253.429V129.624C253.428 129.272 253.287 128.934 253.037 128.686C252.787 128.437 252.448 128.298 252.096 128.298Z" fill="white" stroke="#263238" stroke-width="1.25903" stroke-linecap="round" stroke-linejoin="round"/>
<path d="M248.953 129.916H252.111" stroke="#263238" stroke-width="1.25903" stroke-linecap="round" stroke-linejoin="round"/>
<path d="M248.953 130.965H252.111" stroke="#263238" stroke-width="1.25903" stroke-linecap="round" stroke-linejoin="round"/>
<path d="M252.111 132.014H248.953" stroke="#263238" stroke-width="1.25903" stroke-linecap="round" stroke-linejoin="round"/>
<path d="M235.709 133.633L234.894 130.313C234.751 129.738 234.42 129.227 233.953 128.862C233.486 128.497 232.909 128.298 232.316 128.298H219.323C218.97 128.298 218.632 128.437 218.382 128.686C218.132 128.934 217.991 129.272 217.99 129.624V149.653C217.991 150.005 218.132 150.343 218.382 150.593C218.632 150.842 218.97 150.983 219.323 150.984H252.096C252.449 150.984 252.788 150.844 253.038 150.594C253.289 150.344 253.429 150.006 253.429 149.653V133.633H235.709Z" fill="#999999" stroke="#263238" stroke-width="1.25903" stroke-linecap="round" stroke-linejoin="round"/>
<path d="M252.979 98.6167H220.202C219.982 98.611 219.765 98.6595 219.569 98.7579C219.373 98.8562 219.204 99.0013 219.077 99.1804C218.931 99.4018 218.852 99.6614 218.853 99.9269V119.951C218.853 120.303 218.992 120.641 219.241 120.89C219.49 121.14 219.828 121.281 220.181 121.282H252.958C253.311 121.281 253.649 121.14 253.898 120.89C254.147 120.641 254.287 120.303 254.287 119.951V99.9478C254.287 99.5992 254.15 99.2645 253.905 99.0156C253.661 98.7667 253.328 98.6235 252.979 98.6167Z" fill="#263238" stroke="#263238" stroke-width="1.25903" stroke-linecap="round" stroke-linejoin="round"/>
<path d="M252.096 97.6563H219.323C218.97 97.6562 218.632 97.7958 218.382 98.0443C218.132 98.2928 217.991 98.63 217.99 98.9821V102.991H253.429V98.9821C253.428 98.63 253.287 98.2928 253.037 98.0443C252.787 97.7958 252.448 97.6562 252.096 97.6563Z" fill="white" stroke="#263238" stroke-width="1.25903" stroke-linecap="round" stroke-linejoin="round"/>
<path d="M248.953 99.2744H252.111" stroke="#263238" stroke-width="1.25903" stroke-linecap="round" stroke-linejoin="round"/>
<path d="M248.953 100.323H252.111" stroke="#263238" stroke-width="1.25903" stroke-linecap="round" stroke-linejoin="round"/>
<path d="M252.111 101.373H248.953" stroke="#263238" stroke-width="1.25903" stroke-linecap="round" stroke-linejoin="round"/>
<path d="M235.709 102.991L234.894 99.6712C234.751 99.0961 234.42 98.5853 233.953 98.2201C233.486 97.8549 232.909 97.6564 232.316 97.6563H219.323C218.97 97.6562 218.632 97.7958 218.382 98.0443C218.132 98.2928 217.991 98.63 217.99 98.9821V119.016C217.99 119.37 218.13 119.708 218.38 119.958C218.63 120.207 218.969 120.348 219.323 120.348H252.096C252.449 120.348 252.788 120.207 253.038 119.958C253.289 119.708 253.429 119.37 253.429 119.016V102.991H235.709Z" fill="#999999" stroke="#263238" stroke-width="1.25903" stroke-linecap="round" stroke-linejoin="round"/>
<path d="M129.224 159.367H142.881C143.19 159.367 143.435 159.236 143.435 159.074V144.928C143.435 144.766 143.19 144.636 142.881 144.636H129.224C128.921 144.636 128.67 144.766 128.67 144.928V159.074C128.67 159.236 128.921 159.367 129.224 159.367Z" fill="white" stroke="#263238" stroke-width="1.25903" stroke-linecap="round" stroke-linejoin="round"/>
<path d="M234.381 145.941H201.603C201.25 145.941 200.911 146.082 200.661 146.331C200.41 146.581 200.27 146.919 200.27 147.273V151.276H235.709V147.273C235.709 146.92 235.57 146.583 235.321 146.333C235.072 146.084 234.734 145.943 234.381 145.941Z" fill="white" stroke="#263238" stroke-width="1.25903" stroke-linecap="round" stroke-linejoin="round"/>
<path d="M231.234 147.56H234.392" stroke="#263238" stroke-width="1.25903" stroke-linecap="round" stroke-linejoin="round"/>
<path d="M231.234 148.608H234.392" stroke="#263238" stroke-width="1.25903" stroke-linecap="round" stroke-linejoin="round"/>
<path d="M234.392 149.658H231.234" stroke="#263238" stroke-width="1.25903" stroke-linecap="round" stroke-linejoin="round"/>
<path d="M217.99 151.276L217.174 147.956C217.031 147.381 216.7 146.87 216.233 146.505C215.766 146.14 215.19 145.942 214.596 145.941H201.603C201.25 145.941 200.911 146.082 200.661 146.331C200.41 146.581 200.27 146.919 200.27 147.273V167.296C200.27 167.649 200.41 167.988 200.661 168.238C200.911 168.487 201.25 168.628 201.603 168.628H234.381C234.734 168.626 235.072 168.485 235.321 168.236C235.57 167.986 235.709 167.649 235.709 167.296V151.276H217.99Z" fill="#999999" stroke="#263238" stroke-width="1.25903" stroke-linecap="round" stroke-linejoin="round"/>
<path d="M258.527 52.999H260.995" stroke="#263238" stroke-width="1.25903" stroke-linecap="round" stroke-linejoin="round"/>
<path d="M248.953 52.999H255.635" stroke="#263238" stroke-width="1.25903" stroke-linecap="round" stroke-linejoin="round"/>
<path d="M177.071 52.999H243.118" stroke="#263238" stroke-width="1.25903" stroke-linecap="round" stroke-linejoin="round"/>
<path d="M169.61 52.999H173.557" stroke="#263238" stroke-width="1.25903" stroke-linecap="round" stroke-linejoin="round"/>
<path d="M206.895 133.006C206.936 132.484 206.963 131.962 206.963 131.44C206.963 130.918 206.936 130.396 206.895 129.874L202.032 129.247C201.776 127.404 201.197 125.619 200.322 123.975L203.914 120.582C203.356 119.682 202.73 118.825 202.042 118.019L197.734 120.363C196.44 119.024 194.922 117.92 193.248 117.101L194.153 112.288C193.172 111.884 192.162 111.558 191.13 111.312L189.039 115.738C187.204 115.411 185.326 115.411 183.491 115.738L181.4 111.312C180.369 111.558 179.358 111.884 178.378 112.288L179.282 117.101C177.609 117.92 176.091 119.024 174.796 120.363L170.451 118.009C169.758 118.816 169.129 119.677 168.569 120.582L172.135 123.944C171.256 125.586 170.675 127.371 170.42 129.216L165.557 129.843C165.516 130.365 165.49 130.887 165.49 131.409C165.49 131.931 165.516 132.453 165.557 132.975L170.42 133.606C170.676 135.449 171.257 137.232 172.135 138.873L168.569 142.24C169.124 143.141 169.748 143.998 170.436 144.803L174.744 142.454C176.037 143.795 177.555 144.899 179.23 145.717L178.326 150.529C179.306 150.934 180.316 151.263 181.348 151.511L183.439 147.079C185.274 147.406 187.152 147.406 188.987 147.079L191.078 151.511C192.11 151.263 193.12 150.934 194.1 150.529L193.196 145.717C194.87 144.899 196.389 143.795 197.682 142.454L201.99 144.803C202.678 143.997 203.304 143.14 203.862 142.24L200.296 138.873C201.177 137.241 201.764 135.467 202.032 133.632L206.895 133.006ZM186.226 119.59C188.042 119.594 189.833 120.014 191.459 120.82C193.086 121.626 194.505 122.795 195.606 124.236L187.983 127.749C187.434 127.488 186.834 127.353 186.226 127.353C185.618 127.353 185.018 127.488 184.469 127.749L176.846 124.236C177.948 122.795 179.367 121.627 180.993 120.821C182.62 120.015 184.41 119.594 186.226 119.59ZM174.378 131.419C174.378 129.892 174.674 128.38 175.251 126.966L182.148 131.821C182.205 132.405 182.389 132.97 182.684 133.477C182.98 133.984 183.382 134.422 183.863 134.76L184.626 143.112C181.791 142.728 179.191 141.333 177.307 139.183C175.423 137.033 174.382 134.275 174.378 131.419ZM187.826 143.127L188.589 134.775C189.071 134.438 189.473 134.001 189.769 133.494C190.065 132.986 190.248 132.421 190.304 131.837L197.201 126.982C197.886 128.653 198.178 130.458 198.055 132.258C197.932 134.059 197.398 135.808 196.493 137.371C195.587 138.933 194.335 140.268 192.833 141.272C191.331 142.276 189.618 142.924 187.826 143.164V143.127Z" fill="#263238" stroke="#263238" stroke-width="1.25903" stroke-linecap="round" stroke-linejoin="round"/>
<path d="M187.951 131.42C187.952 131.76 187.852 132.094 187.663 132.378C187.474 132.662 187.205 132.884 186.89 133.015C186.575 133.146 186.228 133.181 185.893 133.115C185.557 133.049 185.25 132.885 185.008 132.645C184.766 132.404 184.601 132.097 184.534 131.763C184.467 131.428 184.501 131.082 184.631 130.767C184.762 130.452 184.983 130.182 185.267 129.993C185.551 129.803 185.884 129.702 186.226 129.702C186.683 129.702 187.121 129.883 187.444 130.205C187.768 130.527 187.95 130.964 187.951 131.42Z" fill="white" stroke="#263238" stroke-width="1.25903" stroke-linecap="round" stroke-linejoin="round"/>
<path d="M206.827 97.3169C206.858 96.9411 206.874 96.5652 206.874 96.179C206.874 95.7927 206.874 95.4221 206.827 95.0462L203.35 94.5973C203.167 93.2789 202.753 92.003 202.126 90.8285L204.678 88.422C204.279 87.7784 203.831 87.1659 203.339 86.5898L200.254 88.2707C199.33 87.3108 198.243 86.5209 197.044 85.9373L197.692 82.4921C196.996 82.2076 196.28 81.9755 195.549 81.7979L194.043 84.9612C192.731 84.7245 191.387 84.7245 190.074 84.9612L188.574 81.7979C187.832 81.9684 187.105 82.1953 186.399 82.4765L187.047 85.9217C185.85 86.5053 184.765 87.2952 183.842 88.255L180.762 86.5742C180.269 87.1489 179.821 87.7615 179.424 88.4064L181.954 90.8285C181.33 92.0039 180.916 93.2794 180.731 94.5973L177.254 95.0462C177.228 95.4221 177.207 95.7979 177.207 96.179C177.207 96.56 177.207 96.9411 177.254 97.3169L180.731 97.7658C180.916 99.0837 181.33 100.359 181.954 101.535L179.408 103.941C179.807 104.583 180.254 105.194 180.747 105.768L183.826 104.092C184.752 105.049 185.836 105.839 187.031 106.426L186.383 109.866C187.085 110.156 187.809 110.39 188.548 110.565L190.048 107.402C191.361 107.631 192.704 107.631 194.017 107.402L195.522 110.565C196.26 110.389 196.982 110.155 197.682 109.866L197.034 106.426C198.23 105.839 199.317 105.049 200.244 104.092L203.323 105.768C203.814 105.193 204.262 104.582 204.662 103.941L202.11 101.535C202.737 100.36 203.152 99.0843 203.334 97.7658L206.827 97.3169ZM192.051 87.7226C193.347 87.7231 194.626 88.0214 195.788 88.5943C196.95 89.1673 197.965 89.9996 198.754 91.0268L193.306 93.5376C192.913 93.3519 192.485 93.2556 192.051 93.2556C191.617 93.2556 191.188 93.3519 190.796 93.5376L185.342 91.0268C186.132 89.9992 187.147 89.1667 188.311 88.5937C189.474 88.0207 190.754 87.7227 192.051 87.7226ZM183.575 96.179C183.575 95.0869 183.788 94.0054 184.203 92.9948L189.133 96.4661C189.175 96.8819 189.307 97.2837 189.519 97.6441C189.731 98.0045 190.019 98.3149 190.362 98.5541L190.885 104.536C188.862 104.257 187.008 103.257 185.665 101.722C184.322 100.186 183.58 98.2176 183.575 96.179ZM193.191 104.531L193.74 98.5488C194.081 98.3082 194.368 97.9974 194.58 97.6373C194.792 97.2772 194.924 96.8761 194.968 96.4608L199.894 92.9895C200.382 94.1832 200.59 95.4728 200.501 96.7592C200.413 98.0455 200.03 99.2946 199.383 100.41C198.736 101.526 197.841 102.479 196.768 103.196C195.694 103.913 194.471 104.375 193.191 104.547V104.531Z" fill="#757575" stroke="#263238" stroke-width="1.25903" stroke-linecap="round" stroke-linejoin="round"/>
<path d="M192.051 97.4111C192.732 97.4111 193.285 96.8596 193.285 96.1792C193.285 95.4988 192.732 94.9473 192.051 94.9473C191.369 94.9473 190.817 95.4988 190.817 96.1792C190.817 96.8596 191.369 97.4111 192.051 97.4111Z" fill="white" stroke="#263238" stroke-width="1.25903" stroke-linecap="round" stroke-linejoin="round"/>
<path d="M168.919 146.803C168.919 146.552 168.956 146.281 168.956 146.051C168.956 145.821 168.956 145.529 168.919 145.294L166.603 144.991C166.483 144.113 166.207 143.263 165.787 142.481L167.487 140.878C167.222 140.449 166.925 140.04 166.598 139.657L164.543 140.774C163.926 140.132 163.203 139.602 162.405 139.208L162.833 136.916C162.367 136.721 161.887 136.564 161.395 136.446L160.392 138.534C159.955 138.454 159.512 138.414 159.069 138.414C158.625 138.415 158.182 138.455 157.746 138.534L156.747 136.446C156.255 136.565 155.772 136.722 155.304 136.916L155.738 139.208C154.939 139.601 154.215 140.131 153.6 140.774L151.545 139.657C151.216 140.039 150.919 140.448 150.656 140.878L152.355 142.481C151.935 143.262 151.657 144.112 151.534 144.991L149.218 145.294C149.218 145.545 149.187 145.816 149.187 146.051C149.187 146.286 149.187 146.573 149.218 146.803L151.534 147.106C151.657 147.984 151.935 148.835 152.355 149.616L150.651 151.219C150.917 151.648 151.216 152.057 151.545 152.44L153.6 151.323C154.214 151.968 154.938 152.498 155.738 152.889L155.304 155.181C155.772 155.375 156.255 155.532 156.747 155.651L157.746 153.537C158.182 153.616 158.625 153.656 159.069 153.657C159.512 153.657 159.955 153.617 160.392 153.537L161.395 155.651C161.887 155.533 162.367 155.376 162.833 155.181L162.405 152.889C163.204 152.497 163.928 151.966 164.543 151.323L166.598 152.44C166.925 152.056 167.222 151.648 167.487 151.219L165.787 149.616C166.207 148.834 166.483 147.984 166.603 147.106L168.919 146.803ZM159.069 140.419C159.933 140.418 160.786 140.617 161.562 140.999C162.337 141.381 163.014 141.936 163.539 142.622L159.905 144.297C159.644 144.172 159.358 144.108 159.069 144.109C158.779 144.109 158.494 144.174 158.232 144.297L154.598 142.622C155.125 141.937 155.802 141.382 156.577 141C157.352 140.618 158.204 140.419 159.069 140.419ZM153.422 146.062C153.422 145.333 153.564 144.611 153.84 143.937L157.124 146.249C157.152 146.528 157.24 146.798 157.382 147.04C157.523 147.283 157.715 147.492 157.945 147.654L158.311 151.642C156.956 151.458 155.714 150.791 154.815 149.763C153.916 148.735 153.421 147.416 153.422 146.051V146.062ZM159.832 151.642L160.198 147.654C160.427 147.491 160.618 147.282 160.759 147.04C160.899 146.798 160.986 146.528 161.014 146.249L164.303 143.937C164.626 144.733 164.763 145.592 164.703 146.449C164.643 147.306 164.387 148.138 163.956 148.882C163.525 149.625 162.929 150.26 162.214 150.738C161.499 151.217 160.685 151.526 159.832 151.642Z" fill="white" stroke="#263238" stroke-width="1.25903" stroke-linecap="round" stroke-linejoin="round"/>
<path d="M159.89 146.051C159.89 146.213 159.841 146.372 159.751 146.506C159.661 146.641 159.533 146.746 159.383 146.808C159.233 146.87 159.068 146.886 158.909 146.855C158.749 146.823 158.603 146.745 158.488 146.63C158.373 146.516 158.295 146.37 158.264 146.211C158.232 146.052 158.248 145.887 158.31 145.737C158.372 145.588 158.478 145.46 158.613 145.37C158.748 145.28 158.906 145.231 159.069 145.231C159.286 145.231 159.495 145.318 159.649 145.471C159.803 145.625 159.89 145.834 159.89 146.051Z" stroke="#263238" stroke-width="1.25903" stroke-linecap="round" stroke-linejoin="round"/>
<path d="M97.1678 150.733L121.455 148.729L108.791 198.997L89.6282 229.012L81.9004 224.982C81.9004 224.982 90.904 202.87 97.4868 194.764C97.4868 194.764 98.888 178.712 100.164 170.308C100.164 170.308 97.7743 158.568 97.1678 150.733Z" fill="#858585"/>
<mask id="mask15_2078_17310" style="mask-type:luminance" maskUnits="userSpaceOnUse" x="81" y="148" width="41" height="82">
<path d="M97.1678 150.733L121.455 148.729L108.791 198.997L89.6282 229.012L81.9004 224.982C81.9004 224.982 90.904 202.87 97.4868 194.764C97.4868 194.764 98.888 178.712 100.164 170.308C100.164 170.308 97.7743 158.568 97.1678 150.733Z" fill="white"/>
</mask>
<g mask="url(#mask15_2078_17310)">
<path d="M114.04 149.339L103.526 150.205C103.526 150.205 102.689 161.079 110.752 169.352L114.506 176.3L118.244 161.454L114.04 149.339Z" fill="#263238" stroke="#263238" stroke-width="1.25903" stroke-linecap="round" stroke-linejoin="round"/>
</g>
<path d="M97.1678 150.733L121.455 148.729L108.791 198.997L89.6282 229.012L81.9004 224.982C81.9004 224.982 90.904 202.87 97.4868 194.764C97.4868 194.764 98.888 178.712 100.164 170.308C100.164 170.308 97.7743 158.568 97.1678 150.733Z" stroke="#263238" stroke-width="1.25903" stroke-linecap="round" stroke-linejoin="round"/>
<path d="M97.2514 198.387C96.7968 198.635 96.3796 198.946 96.0122 199.311" stroke="#263238" stroke-width="1.25903" stroke-linecap="round" stroke-linejoin="round"/>
<path d="M99.1338 194.544C99.1338 194.544 103.871 193.719 104.849 197.008C105.617 199.581 102.166 197.159 98.7573 197.854" stroke="#263238" stroke-width="1.25903" stroke-linecap="round" stroke-linejoin="round"/>
<path d="M104.854 150.696L124.262 147.883L136.926 187.628L147.519 223.416L138.808 226.809C138.808 226.809 128.55 204.666 126.186 192.603C126.186 192.603 116.717 176.504 113.355 168.773C110.687 166.575 108.541 163.814 107.071 160.688C105.601 157.562 104.844 154.15 104.854 150.696Z" fill="#999999" stroke="#263238" stroke-width="1.25903" stroke-linecap="round" stroke-linejoin="round"/>
<path d="M122.782 168.455C123.63 168.551 124.44 168.86 125.135 169.353" stroke="#263238" stroke-width="1.25903" stroke-linecap="round" stroke-linejoin="round"/>
<path d="M120.968 163.872C119.567 165.057 113.946 165.527 115.264 167.818C116.048 169.181 118.234 168.607 120.571 168.434" stroke="#263238" stroke-width="1.25903" stroke-linecap="round" stroke-linejoin="round"/>
<path d="M127.483 191.751C127.483 191.751 130.348 189.94 132.654 191.751" stroke="#263238" stroke-width="1.25903" stroke-linecap="round" stroke-linejoin="round"/>
<path d="M92.1117 240.862L75.4116 231.413L75.8717 230.322L76.5358 230.521C76.5358 230.521 77.6181 228.955 80.3056 225.677C81.0531 223.347 82.1706 221.153 83.6153 219.178C83.6153 219.178 94.2136 222.534 92.5038 226.522L90.2399 230.463C91.2758 232.212 92.4105 233.901 93.6384 235.522C93.6384 235.522 96.1272 237.119 96.7756 237.255C97.0711 237.299 97.3537 237.405 97.6045 237.567C97.8553 237.729 98.0684 237.943 98.2294 238.195C98.3904 238.446 98.4956 238.729 98.5379 239.024C98.5803 239.319 98.5588 239.62 98.4748 239.906L99.118 240.042L98.7101 241.18L92.1117 240.862Z" fill="white" stroke="#263238" stroke-width="1.25903" stroke-linecap="round" stroke-linejoin="round"/>
<path d="M87.3171 220.655C86.1105 220.089 84.8708 219.595 83.6048 219.178C82.1601 221.153 81.0427 223.347 80.2952 225.677C84.7656 228.443 87.3171 220.655 87.3171 220.655Z" fill="white"/>
<mask id="mask16_2078_17310" style="mask-type:luminance" maskUnits="userSpaceOnUse" x="80" y="219" width="8" height="8">
<path d="M87.3171 220.655C86.1105 220.089 84.8708 219.595 83.6048 219.178C82.1601 221.153 81.0427 223.347 80.2952 225.677C84.7656 228.443 87.3171 220.655 87.3171 220.655Z" fill="white"/>
</mask>
<g mask="url(#mask16_2078_17310)">
<path opacity="0.5" d="M87.3171 220.655C86.1105 220.089 84.8708 219.595 83.6048 219.178C82.1601 221.153 81.0427 223.347 80.2952 225.677C84.7656 228.443 87.3171 220.655 87.3171 220.655Z" fill="black"/>
</g>
<path d="M87.3171 220.655C86.1105 220.089 84.8708 219.595 83.6048 219.178C82.1601 221.153 81.0427 223.347 80.2952 225.677C84.7656 228.443 87.3171 220.655 87.3171 220.655Z" stroke="#263238" stroke-width="1.25903" stroke-linecap="round" stroke-linejoin="round"/>
<path d="M90.8255 231.355C90.5558 231.75 90.1849 232.064 89.7517 232.266C89.3184 232.468 88.8387 232.55 88.3628 232.504" stroke="#263238" stroke-width="1.25903" stroke-linecap="round" stroke-linejoin="round"/>
<path d="M91.7718 232.775C91.7718 232.775 91.5261 233.919 89.7327 234.42" stroke="#263238" stroke-width="1.25903" stroke-linecap="round" stroke-linejoin="round"/>
<path d="M92.7286 234.206C92.7286 234.206 93.0475 235.323 91.1182 236.357" stroke="#263238" stroke-width="1.25903" stroke-linecap="round" stroke-linejoin="round"/>
<path d="M94.0305 239.494L97.2722 239.729" stroke="#263238" stroke-width="1.25903" stroke-linecap="round" stroke-linejoin="round"/>
<path d="M79.605 232.265L92.1849 239.359L93.3195 237.918" stroke="#263238" stroke-width="1.25903" stroke-linecap="round" stroke-linejoin="round"/>
<path d="M77.686 231.184L78.554 231.674" stroke="#263238" stroke-width="1.25903" stroke-linecap="round" stroke-linejoin="round"/>
<path d="M137.428 225.562C137.428 225.562 146.839 219.674 148.805 223.542L150.342 227.817C150.342 227.817 157.913 228.965 160.219 228.47C160.505 228.393 160.805 228.378 161.097 228.425C161.39 228.472 161.669 228.582 161.916 228.745C162.164 228.908 162.373 229.122 162.531 229.373C162.689 229.623 162.792 229.904 162.833 230.197L163.476 230.062L163.571 231.268L141.438 239.729L140.915 238.685L141.496 238.309C141.496 238.309 141.02 236.482 140.241 232.301C138.946 230.22 137.997 227.945 137.428 225.562Z" fill="white" stroke="#263238" stroke-width="1.25903" stroke-linecap="round" stroke-linejoin="round"/>
<path d="M140.957 223.698C139.744 224.248 138.566 224.87 137.428 225.562C137.999 227.941 138.951 230.213 140.246 232.29C145.244 230.688 140.957 223.698 140.957 223.698Z" fill="white"/>
<mask id="mask17_2078_17310" style="mask-type:luminance" maskUnits="userSpaceOnUse" x="137" y="223" width="6" height="10">
<path d="M140.957 223.698C139.744 224.248 138.566 224.87 137.428 225.562C137.999 227.941 138.951 230.213 140.246 232.29C145.244 230.688 140.957 223.698 140.957 223.698Z" fill="white"/>
</mask>
<g mask="url(#mask17_2078_17310)">
<path opacity="0.5" d="M140.957 223.698C139.744 224.248 138.566 224.87 137.428 225.562C137.999 227.941 138.951 230.213 140.246 232.29C145.244 230.688 140.957 223.698 140.957 223.698Z" fill="black"/>
</g>
<path d="M140.957 223.698C139.744 224.248 138.566 224.87 137.428 225.562C137.999 227.941 138.951 230.213 140.246 232.29C145.244 230.688 140.957 223.698 140.957 223.698Z" stroke="#263238" stroke-width="1.25903" stroke-linecap="round" stroke-linejoin="round"/>
<path d="M160.915 230.975L161.95 230.578" stroke="#263238" stroke-width="1.25903" stroke-linecap="round" stroke-linejoin="round"/>
<path d="M146.755 236.382L159.602 231.476" stroke="#263238" stroke-width="1.25903" stroke-linecap="round" stroke-linejoin="round"/>
<path d="M142.405 238.042L144.241 237.343" stroke="#263238" stroke-width="1.25903" stroke-linecap="round" stroke-linejoin="round"/>
<path d="M151.393 227.963C151.518 228.423 151.517 228.907 151.39 229.367C151.263 229.826 151.015 230.242 150.672 230.573" stroke="#263238" stroke-width="1.25903" stroke-linecap="round" stroke-linejoin="round"/>
<path d="M153.087 228.161C153.087 228.161 153.798 229.09 153.024 230.771" stroke="#263238" stroke-width="1.25903" stroke-linecap="round" stroke-linejoin="round"/>
<path d="M154.802 228.359C154.802 228.359 155.848 228.84 155.398 230.969" stroke="#263238" stroke-width="1.25903" stroke-linecap="round" stroke-linejoin="round"/>
<path d="M91.343 96.8369C89.4345 99.0624 88.182 101.773 87.7249 104.667C86.904 109.595 83.0191 120.102 84.2688 120.885C85.5184 121.668 97.2722 130.281 97.2722 130.281L102.428 125.516L95.1076 116.203L98.7362 100.376L91.343 96.8369Z" fill="white"/>
<mask id="mask18_2078_17310" style="mask-type:luminance" maskUnits="userSpaceOnUse" x="84" y="96" width="19" height="35">
<path d="M91.343 96.8369C89.4345 99.0624 88.182 101.773 87.7249 104.667C86.904 109.595 83.0191 120.102 84.2688 120.885C85.5184 121.668 97.2722 130.281 97.2722 130.281L102.428 125.516L95.1076 116.203L98.7362 100.376L91.343 96.8369Z" fill="white"/>
</mask>
<g mask="url(#mask18_2078_17310)">
<path opacity="0.3" d="M91.343 96.8369C89.4345 99.0624 88.182 101.773 87.7249 104.667C86.904 109.595 83.0191 120.102 84.2688 120.885C85.5184 121.668 97.2722 130.281 97.2722 130.281L102.428 125.516L95.1076 116.203L98.7362 100.376L91.343 96.8369Z" fill="black"/>
</g>
<path d="M91.343 96.8369C89.4345 99.0624 88.182 101.773 87.7249 104.667C86.904 109.595 83.0191 120.102 84.2688 120.885C85.5184 121.668 97.2722 130.281 97.2722 130.281L102.428 125.516L95.1076 116.203L98.7362 100.376L91.343 96.8369Z" stroke="#263238" stroke-width="1.25903" stroke-linecap="round" stroke-linejoin="round"/>
<path d="M86.3811 118.813C87.1692 118.064 88.1458 117.542 89.2072 117.302C90.2686 117.062 91.3752 117.113 92.4096 117.451" stroke="#263238" stroke-width="1.25903" stroke-linecap="round" stroke-linejoin="round"/>
<path d="M75.6155 142.271C77.0331 143.599 78.7784 144.528 80.6732 144.962C82.568 145.396 84.5443 145.321 86.4001 144.742C88.2559 144.164 89.9247 143.105 91.236 141.672C92.5472 140.239 93.4538 138.484 93.8632 136.587L178.514 107.422C180.008 108.664 181.806 109.487 183.723 109.808C185.641 110.129 187.609 109.936 189.427 109.248C191.245 108.561 192.848 107.404 194.071 105.895C195.295 104.387 196.095 102.581 196.39 100.663V99.3472L188.229 102.161L183.962 98.4597L184.877 93.7617L193.039 90.9534V89.638C191.621 88.3084 189.876 87.3786 187.98 86.9436C186.085 86.5087 184.107 86.5841 182.251 87.1624C180.394 87.7406 178.725 88.8008 177.413 90.2346C176.101 91.6683 175.195 93.4242 174.786 95.3225L90.1353 124.487C88.641 123.245 86.8433 122.422 84.9259 122.101C83.0085 121.78 81.0402 121.973 79.2221 122.661C77.404 123.348 75.8013 124.506 74.5779 126.014C73.3545 127.522 72.5542 129.328 72.2588 131.247V132.588L80.4206 129.775L84.6871 133.47L83.7773 138.168L75.6155 140.94V142.271Z" fill="#CBF2D6" stroke="#263238" stroke-width="1.25903" stroke-linecap="round" stroke-linejoin="round"/>
<path d="M183.748 98.2725L184.877 92.4574L193.039 89.6438C191.621 88.3143 189.876 87.3844 187.98 86.9495C186.085 86.5145 184.107 86.59 182.251 87.1682C180.394 87.7465 178.725 88.8067 177.413 90.2405C176.101 91.6742 175.195 93.4301 174.786 95.3284L90.1353 124.493C88.641 123.251 86.8433 122.428 84.9259 122.107C83.0085 121.786 81.0402 121.979 79.2221 122.667C77.404 123.354 75.8013 124.511 74.5779 126.02C73.3545 127.528 72.5542 129.334 72.2588 131.252L80.4206 128.444L84.9067 132.328L83.7773 138.148L75.6155 140.941C77.0331 142.269 78.7784 143.198 80.6732 143.632C82.568 144.066 84.5443 143.99 86.4001 143.412C88.2559 142.834 89.9247 141.774 91.236 140.341C92.5472 138.908 93.4538 137.154 93.8632 135.256L178.514 106.092C180.01 107.334 181.81 108.157 183.729 108.476C185.648 108.796 187.618 108.6 189.437 107.91C191.255 107.219 192.858 106.059 194.079 104.547C195.301 103.035 196.099 101.227 196.39 99.306L188.229 102.161L183.748 98.2725Z" fill="#858585" stroke="#263238" stroke-width="1.25903" stroke-linecap="round" stroke-linejoin="round"/>
<path d="M119.734 80.0958C119.734 80.0958 118.098 76.849 117.857 75.6692C117.685 74.834 118.024 73.0905 117.857 72.2553C117.454 70.2978 114.72 64.9056 114.72 64.9056C114.608 64.6738 114.439 64.4743 114.228 64.3262L112.597 66.2941H108.231L101.57 75.0846L104.848 82.9981L103.886 84.1361C104.477 84.7155 104.848 85.0496 104.848 85.0496L103.886 90.7916L113.298 91.7416L113.544 88.0876H116.404C116.789 88.0862 117.158 87.9329 117.43 87.6611C117.702 87.3892 117.856 87.0209 117.857 86.6365V81.6618L119.169 81.2912C119.291 81.2577 119.403 81.1986 119.499 81.1177C119.595 81.0369 119.673 80.9363 119.726 80.8228C119.78 80.7093 119.809 80.5856 119.81 80.4601C119.811 80.3347 119.785 80.2104 119.734 80.0958Z" fill="white" stroke="#263238" stroke-width="1.25903" stroke-linecap="round" stroke-linejoin="round"/>
<path d="M104.848 85.0338L106.448 81.9018C106.448 81.9018 102.998 80.6751 103.714 77.5953C104.43 74.5155 107.311 77.1307 107.311 77.1307H108.231L109.047 73.5707C109.047 73.5707 111.05 71.4253 110.908 70.6736C110.8 70.1273 110.657 69.5886 110.48 69.0606C110.48 69.0606 116.953 68.074 116.111 64.2739C115.269 60.4737 106.584 61.9144 106.584 61.9144C106.584 61.9144 104.022 57.3522 97.4396 66.2209C97.4396 66.2209 92.6397 68.9562 96.1481 74.6982C98.5893 78.5038 101.514 81.9779 104.848 85.0338Z" fill="#263238" stroke="#263238" stroke-width="1.25903" stroke-linecap="round" stroke-linejoin="round"/>
<path d="M108.231 70.084C108.231 70.084 103.201 80.1064 98.9192 80.8476L97.5232 78.958C97.5232 78.958 97.7689 77.3554 100.483 77.131C100.483 77.131 103.045 76.0035 106.077 70.6738L108.231 70.084Z" fill="#858585" stroke="#263238" stroke-width="1.25903" stroke-linecap="round" stroke-linejoin="round"/>
<path d="M113.282 80.8477C113.633 81.2363 114.074 81.5343 114.565 81.7161C115.057 81.8979 115.586 81.9582 116.106 81.8917" stroke="#263238" stroke-width="1.25903" stroke-linecap="round" stroke-linejoin="round"/>
<path d="M116.106 74.6988C116.106 75.1425 115.933 75.5078 115.724 75.5078C115.515 75.5078 115.347 75.1425 115.347 74.6988C115.347 74.2551 115.52 73.8896 115.724 73.8896C115.928 73.8896 116.106 74.2498 116.106 74.6988Z" fill="#263238"/>
<path d="M116.106 71.629C115.584 71.5153 115.039 71.5898 114.567 71.8392C114.095 72.0886 113.727 72.4969 113.528 72.9915" stroke="#263238" stroke-width="1.25903" stroke-linecap="round" stroke-linejoin="round"/>
<path d="M97.4238 77.3033C97.3358 77.4204 97.2194 77.5133 97.0856 77.5734C96.9518 77.6335 96.8049 77.6587 96.6586 77.6467C96.5124 77.6347 96.3716 77.5859 96.2494 77.5048C96.1272 77.4238 96.0276 77.3131 95.9598 77.1832C94.2972 74.0042 90.8881 65.4643 100.033 61.2465C110.903 56.2353 116.728 63.0631 116.728 63.0631L119.619 63.3711L120.388 64.7126L98.6369 75.6903L97.4238 77.3033Z" fill="white" stroke="#263238" stroke-width="1.25903" stroke-linecap="round" stroke-linejoin="round"/>
<path d="M99.9494 92.3475C100.408 91.4333 101.105 90.6596 101.967 90.1083C102.83 89.557 103.825 89.2485 104.849 89.2155C108.462 89.0485 114.009 89.5444 115.431 92.9948C115.431 92.9948 123.227 95.2446 125.026 100.773C126.824 106.301 124.262 131.769 124.262 131.769C124.262 131.769 126.563 141.958 125.135 148.75C125.135 148.75 117.24 151.454 95.8555 151.882C95.8555 151.882 94.2869 138.691 95.181 134.008C95.181 134.008 88.9433 101.075 91.3537 96.8002C93.764 92.525 99.9494 92.3475 99.9494 92.3475Z" fill="#263238" stroke="#263238" stroke-width="1.25903" stroke-miterlimit="10"/>
<path d="M104.017 117.095C97.6331 116.949 94.3182 118.52 92.7444 119.705C93.0581 121.793 93.377 123.787 93.6803 125.599C94.6633 124.784 97.2514 123.881 103.855 123.751C110.92 123.628 117.962 124.602 124.728 126.638C124.874 124.868 125.036 122.764 125.182 120.525C121.611 119.575 112.017 117.273 104.017 117.095Z" fill="white" stroke="#263238" stroke-width="1.25903" stroke-linecap="round" stroke-linejoin="round"/>
<path d="M124.262 131.779C124.262 131.779 124.309 131.294 124.388 130.443C121.397 129.697 112.974 127.781 104.895 127.598C98.2657 127.447 95.5154 128.867 94.407 129.843C94.8619 132.421 95.1704 134.045 95.1704 134.045C95.1076 134.363 95.0606 134.723 95.0187 135.089C96.2736 134.368 98.9768 133.669 104.733 133.554C111.604 133.439 118.454 134.356 125.052 136.274C124.68 133.632 124.262 131.779 124.262 131.779Z" fill="white" stroke="#263238" stroke-width="1.25903" stroke-linecap="round" stroke-linejoin="round"/>
<path d="M111.891 92.5195C112.341 92.6292 112.796 92.7544 113.261 92.8954" stroke="#7F7F7F" stroke-width="0.944269" stroke-linecap="round" stroke-linejoin="round"/>
<path d="M102.428 91.9089C105.108 91.5594 107.828 91.6599 110.475 92.2064" stroke="#7F7F7F" stroke-width="0.944269" stroke-linecap="round" stroke-linejoin="round"/>
<path d="M117.925 113.274C117.588 108.544 118.5 103.808 120.571 99.5404C124.043 92.2324 126.845 106.942 126.845 106.942C126.845 106.942 130.824 113.206 131.781 117.685C131.781 117.685 135.195 114.37 149.192 113.274L150.834 119.152C150.834 119.152 131.546 128.611 127.483 127.89C124.477 127.4 117.925 113.274 117.925 113.274Z" fill="white" stroke="#263238" stroke-width="1.25903" stroke-linecap="round" stroke-linejoin="round"/>
<path d="M124.837 115.362C124.832 115.947 124.881 116.53 124.984 117.106" stroke="#263238" stroke-width="1.25903" stroke-linecap="round" stroke-linejoin="round"/>
<path d="M121.24 113.274C121.24 113.274 124.053 107.114 125.527 107.532C126.573 107.84 125.454 110.288 125.005 113.274" stroke="#263238" stroke-width="1.25903" stroke-linecap="round" stroke-linejoin="round"/>
<path d="M147.519 112.701C147.519 112.701 149.783 116.626 149.673 120.724L152.418 119.236C152.418 119.236 152.146 114.24 150.227 112.56L147.519 112.701Z" fill="#263238" stroke="#263238" stroke-width="1.25903" stroke-linecap="round" stroke-linejoin="round"/>
<path d="M149.673 113.431L154.159 112.7C154.508 111.989 155.053 111.391 155.73 110.977C156.407 110.563 157.187 110.349 157.981 110.362C159.515 110.407 161.043 110.173 162.493 109.673C162.536 109.655 162.583 109.649 162.629 109.654C162.675 109.659 162.719 109.676 162.757 109.702C162.795 109.729 162.825 109.764 162.846 109.806C162.867 109.847 162.877 109.893 162.875 109.939C162.875 110.576 162.394 111.792 159.262 112.074C159.262 112.074 162.091 113.791 162.875 113.118C163.082 112.916 163.342 112.776 163.624 112.713C163.906 112.649 164.201 112.665 164.475 112.758C164.475 112.758 164.569 114.956 163.011 115.044C163.011 115.044 162.645 116.469 161.442 116.443C161.442 116.443 160.616 117.602 159.978 117.419C159.344 117.554 158.689 117.554 158.054 117.419C156.867 117.216 155.586 116.96 155.586 116.96L151.404 118.265L149.673 113.431Z" fill="#263238" stroke="#263238" stroke-width="1.25903" stroke-linecap="round" stroke-linejoin="round"/>
<path d="M162.493 113.958C162.493 113.958 162.551 114.856 161.892 115.002C161.233 115.148 162.06 115.936 159.801 116.62" stroke="#7F7F7F" stroke-width="0.944269" stroke-linecap="round" stroke-linejoin="round"/>
<path d="M131.828 119.471C131.869 120.668 131.721 121.864 131.389 123.015" stroke="#263238" stroke-width="1.25903" stroke-linecap="round" stroke-linejoin="round"/>
<path d="M151.864 115.764C151.666 114.958 151.36 114.182 150.954 113.457" stroke="#7F7F7F" stroke-width="0.944269" stroke-linecap="round" stroke-linejoin="round"/>
<path d="M152.188 117.304C152.146 117.054 152.099 116.782 152.042 116.526" stroke="#7F7F7F" stroke-width="0.944269" stroke-linecap="round" stroke-linejoin="round"/>
</svg>
